<?xml version="1.0" encoding="utf-8"?>
<!-- Generator: Adobe Illustrator 25.1.0, SVG Export Plug-In . SVG Version: 6.00 Build 0)  -->
<svg version="1.1" id="图层_1" xmlns="http://www.w3.org/2000/svg" xmlns:xlink="http://www.w3.org/1999/xlink" x="0px" y="0px"
	 viewBox="0 0 144 183" style="enable-background:new 0 0 144 183;" xml:space="preserve">
<style type="text/css">
	.st0{fill:#FFFFFF;stroke:#000000;stroke-width:3;}
	.st1{fill:#FFB840;}
	.st2{enable-background:new    ;}
	.st3{fill:#FFFFFF;}
</style>
<path class="st0" d="M12,1h120c5.5,0,10,4.5,10,10v160c0,5.5-4.5,10-10,10H12c-5.5,0-10-4.5-10-10V11C2,5.5,6.5,1,12,1z"/>
<path class="st1" d="M135,140H10c0,0,0.5-1.2,0-1s0-119,0-119c0-5.5,4.5-10,10-10h105c5.5,0,10,4.5,10,10"/>
<g class="st2">
	<path class="st3" d="M107.9,86.4V73H94.4v-9.2h13.5V50.4h9v13.4h13.5V73h-13.5v13.4H107.9z"/>
</g>
<g class="st2">
	<path class="st3" d="M45.1,113.4l0.4,5.6h-0.4c-0.5-1.7-1.2-2.9-2.2-3.6c-0.9-0.7-2.1-1.1-3.4-1.1c-1.1,0-2.1,0.3-3,0.8
		c-0.9,0.6-1.6,1.4-2.1,2.7c-0.5,1.2-0.8,2.7-0.8,4.6c0,1.5,0.2,2.8,0.7,3.9c0.5,1.1,1.2,1.9,2.2,2.5c1,0.6,2.1,0.9,3.3,0.9
		c1.1,0,2-0.2,2.8-0.7c0.8-0.5,1.7-1.4,2.7-2.7l0.4,0.2c-0.8,1.5-1.8,2.6-2.9,3.2c-1.1,0.7-2.4,1-3.9,1c-2.7,0-4.9-1-6.4-3.1
		c-1.1-1.5-1.7-3.3-1.7-5.3c0-1.7,0.4-3.2,1.1-4.6c0.7-1.4,1.8-2.5,3.1-3.2c1.3-0.8,2.7-1.1,4.3-1.1c1.2,0,2.4,0.3,3.5,0.9
		c0.3,0.2,0.6,0.3,0.7,0.3c0.2,0,0.4-0.1,0.6-0.2c0.2-0.2,0.4-0.5,0.5-0.9H45.1z"/>
	<path class="st3" d="M58.1,124.8h-6.4l-1.1,2.6c-0.3,0.6-0.4,1.1-0.4,1.4c0,0.3,0.1,0.5,0.4,0.7c0.2,0.2,0.8,0.3,1.6,0.4v0.5h-5.2
		v-0.5c0.7-0.1,1.1-0.3,1.3-0.5c0.4-0.4,0.9-1.2,1.4-2.4l5.8-13.6h0.4l5.8,13.8c0.5,1.1,0.9,1.8,1.3,2.2c0.4,0.3,0.9,0.5,1.6,0.6
		v0.5h-6.5v-0.5c0.7,0,1.1-0.1,1.3-0.3c0.2-0.2,0.3-0.4,0.3-0.7c0-0.4-0.2-0.9-0.5-1.7L58.1,124.8z M57.8,123.9l-2.8-6.7l-2.9,6.7
		H57.8z"/>
	<path class="st3" d="M65.2,130.4v-0.5h0.6c0.7,0,1.2-0.2,1.5-0.7c0.2-0.3,0.3-0.9,0.3-1.8v-10.7c0-1-0.1-1.7-0.3-1.9
		c-0.3-0.4-0.8-0.5-1.4-0.5h-0.6v-0.5h6.7c2.5,0,4.4,0.3,5.6,0.8c1.3,0.6,2.3,1.5,3.1,2.8c0.8,1.3,1.2,2.8,1.2,4.5
		c0,2.3-0.7,4.2-2.1,5.8c-1.6,1.7-4,2.6-7.2,2.6H65.2z M69.9,129.2c1,0.2,1.9,0.3,2.6,0.3c1.9,0,3.5-0.7,4.7-2
		c1.2-1.3,1.9-3.1,1.9-5.4c0-2.3-0.6-4.1-1.9-5.4s-2.8-2-4.8-2c-0.7,0-1.6,0.1-2.5,0.4V129.2z"/>
	<path class="st3" d="M87.9,122.6v4.8c0,1,0.1,1.7,0.3,1.9c0.3,0.4,0.8,0.5,1.4,0.5h0.6v0.5h-7.1v-0.5h0.6c0.7,0,1.2-0.2,1.5-0.7
		c0.2-0.3,0.2-0.9,0.2-1.8v-10.7c0-1-0.1-1.7-0.3-1.9c-0.3-0.4-0.8-0.5-1.4-0.5h-0.6v-0.5h6.1c1.5,0,2.6,0.2,3.5,0.5
		c0.9,0.3,1.6,0.8,2.2,1.5s0.9,1.6,0.9,2.6c0,1.4-0.4,2.4-1.3,3.3c-0.9,0.8-2.2,1.3-3.8,1.3c-0.4,0-0.8,0-1.3-0.1
		S88.5,122.7,87.9,122.6z M87.9,121.9c0.4,0.1,0.8,0.1,1.1,0.2c0.3,0,0.6,0.1,0.9,0.1c0.8,0,1.6-0.3,2.2-1c0.6-0.7,0.9-1.5,0.9-2.5
		c0-0.7-0.1-1.4-0.4-2s-0.7-1.1-1.2-1.4c-0.5-0.3-1.1-0.5-1.8-0.5c-0.4,0-0.9,0.1-1.6,0.2V121.9z"/>
	<path class="st3" d="M105.8,124.8h-6.4l-1.1,2.6c-0.3,0.6-0.4,1.1-0.4,1.4c0,0.3,0.1,0.5,0.4,0.7c0.2,0.2,0.8,0.3,1.6,0.4v0.5h-5.2
		v-0.5c0.7-0.1,1.1-0.3,1.3-0.5c0.4-0.4,0.9-1.2,1.4-2.4l5.8-13.6h0.4l5.8,13.8c0.5,1.1,0.9,1.8,1.3,2.2c0.4,0.3,0.9,0.5,1.6,0.6
		v0.5h-6.5v-0.5c0.7,0,1.1-0.1,1.3-0.3c0.2-0.2,0.3-0.4,0.3-0.7c0-0.4-0.2-0.9-0.5-1.7L105.8,124.8z M105.5,123.9l-2.8-6.7l-2.9,6.7
		H105.5z"/>
</g>
<g class="st2">
	<path d="M23.4,164.9c0.6,0.3,1.3,0.8,2.4,1.3c1.9,1,4.5,1.1,7.5,1.1c2.8,0,7.1-0.3,9.8-0.6c-0.4,0.9-0.8,2.4-0.9,3.2
		c-1.9,0.1-6.4,0.3-9.1,0.3c-3.4,0-5.8-0.3-7.9-1.4c-1.3-0.6-2.2-1.4-2.9-1.4c-1,0-2.4,1.6-3.6,3.2l-2.1-2.9c1.2-1.1,2.4-2,3.6-2.6
		v-7.5h-3.4v-3.1h6.6V164.9z M21.4,152c-0.8-1.3-2.6-3.2-4.1-4.6l2.4-1.9c1.5,1.3,3.4,3.1,4.3,4.4L21.4,152z M32.2,154h-7.4v-2.9
		h7.4v-2.4c-1.8,0.2-3.7,0.3-5.4,0.3c-0.1-0.8-0.5-1.9-0.8-2.6c4.7-0.3,10.2-0.9,13.6-1.8l1.6,2.7c-1.7,0.4-3.6,0.7-5.6,1v2.7h7.2
		v2.9h-7.2v2.6h5.5v8.7H26.9v-8.7h5.4V154z M37.8,159.3H30v3.4h7.8V159.3z"/>
	<path d="M65.9,145.4c-0.1,0.3-0.2,0.5-0.3,0.8c1.4,2.7,3.8,5.6,6,7.3c-0.8,0.6-1.9,1.8-2.4,2.6c-1.8-1.6-3.6-4.2-5.1-6.8
		c-1.4,2.6-3.2,4.9-5.4,6.7c-0.2-0.3-0.6-0.8-1.1-1.3v0.7H45v-2.5h1.4v-6.5h2.7v6.5h1.5v-8h2.9v3h3.9v2.6h-3.9v2.4h3.8
		c2.4-2.2,4.5-5.4,5.6-8.4L65.9,145.4z M54.6,156.3h2.6v14.3h-2.6v-1.4l-9,0.6v-13.4h2.6v8.3c1.6-2.1,2-5.3,2.3-8.9L53,156
		c-0.1,1.8-0.3,3.4-0.7,4.9c0.9,1.1,1.7,2.4,2.2,3.4V156.3z M54.6,166.8v-2l-1.7,1.5c-0.3-0.7-0.8-1.6-1.4-2.5c-0.4,1.1-1,2.1-1.7,3
		c-0.3-0.4-1-1.1-1.6-1.6v1.8L54.6,166.8z M70.6,159c-1.2,2.5-3.2,5.4-4.9,7.6c0.9,0.7,1.7,1.4,2.2,1.9l-1.9,2.6
		c-1.7-1.7-5.2-4.5-7.7-6.5l1.7-2.2c0.9,0.7,2,1.5,3.1,2.4c1-1.2,2-2.7,2.9-4.1h-7.6v-2.9h9.4l0.5-0.2L70.6,159z M63.9,152.8
		c0.9,1,1.9,2.4,2.4,3.3l-2.6,1.4c-0.4-0.9-1.5-2.4-2.3-3.5L63.9,152.8z"/>
	<path d="M79.1,160.4v6.5c0,1.5-0.3,2.4-1.1,2.9c-0.8,0.6-2.1,0.7-3.9,0.6c-0.1-0.8-0.4-2.2-0.9-3.1c1,0,2,0,2.3,0
		c0.3,0,0.5-0.1,0.5-0.5v-5.6c-0.9,0.3-1.8,0.5-2.6,0.7l-0.8-3.2c1-0.2,2.1-0.5,3.3-0.8v-5h-3V150h3v-5.3h3v5.3h2.8v3.1h-2.8v4.1
		l2.5-0.7l0.4,3L79.1,160.4z M91.8,167.5c0.6,0.1,1.3,0.1,2,0.1c1,0,4.4,0,5.6,0c-0.4,0.7-0.8,2.1-0.9,2.9h-4.9
		c-3.7,0-6.5-0.7-8.4-4.1c-0.7,1.8-1.7,3.2-2.9,4.4c-0.5-0.5-1.8-1.6-2.4-2c2.3-1.8,3.5-5,3.9-8.8l3,0.4c-0.1,1-0.3,2-0.5,2.8
		c0.6,1.6,1.4,2.6,2.4,3.3v-7.3h-6.6v-2.7h16.5v2.7h-6.8v2.5h5.3v2.6h-5.3V167.5z M97.2,155.2H83.5v-9.7h13.8V155.2z M94,147.9h-7.5
		v1.4H94V147.9z M94,151.4h-7.5v1.4H94V151.4z"/>
	<path d="M109.1,159.5c-1.2,3.3-3.3,6.7-5.3,8.8c-0.7-0.6-2.2-1.6-3.1-2c2-1.8,3.9-4.8,4.9-7.7L109.1,159.5z M115.9,156.5v10.4
		c0,1.9-0.4,2.8-1.7,3.3c-1.3,0.5-3.1,0.6-5.6,0.6c-0.2-1-0.7-2.5-1.2-3.6c1.6,0.1,3.6,0.1,4.1,0.1c0.5,0,0.7-0.1,0.7-0.5v-10.3
		h-10.7v-3.3h24.9v3.3H115.9z M123.9,149.8h-19.7v-3.3h19.7V149.8z M121.9,158.4c1.8,2.6,3.9,6,4.6,8.3l-3.5,1.5
		c-0.6-2.3-2.5-5.9-4.3-8.6L121.9,158.4z"/>
</g>
<g class="st2">
	<path class="st3" d="M41.2,98.7H29.8V55.8c-4.2,3.9-9.1,6.8-14.7,8.6V54.1c3-1,6.2-2.8,9.7-5.5c3.5-2.7,5.9-5.9,7.2-9.5h9.2V98.7z"
		/>
	<path class="st3" d="M89.8,53.9l-11,1.2c-0.3-2.3-1-3.9-2.1-5c-1.1-1.1-2.6-1.6-4.4-1.6c-2.4,0-4.4,1.1-6.1,3.2
		c-1.7,2.2-2.7,6.7-3.1,13.5c2.8-3.3,6.4-5,10.6-5c4.8,0,8.8,1.8,12.2,5.4c3.4,3.6,5.1,8.3,5.1,14c0,6.1-1.8,11-5.3,14.6
		c-3.6,3.7-8.1,5.5-13.7,5.5c-6,0-10.9-2.3-14.8-7c-3.9-4.7-5.8-12.3-5.8-22.9c0-10.9,2-18.7,6-23.5c4-4.8,9.3-7.2,15.7-7.2
		c4.5,0,8.2,1.3,11.2,3.8C87.1,45.4,89,49.1,89.8,53.9z M64,78.7c0,3.7,0.9,6.6,2.6,8.6c1.7,2,3.6,3,5.8,3c2.1,0,3.9-0.8,5.3-2.5
		c1.4-1.6,2.1-4.3,2.1-8.1c0-3.9-0.8-6.7-2.3-8.5c-1.5-1.8-3.4-2.7-5.7-2.7c-2.2,0-4,0.9-5.6,2.6C64.8,72.8,64,75.4,64,78.7z"/>
</g>
</svg>
